<?xml version="1.0" encoding="utf-8"?>
<!-- Generator: Adobe Illustrator 25.3.1, SVG Export Plug-In . SVG Version: 6.00 Build 0)  -->
<svg version="1.1" id="レイヤー_1" xmlns="http://www.w3.org/2000/svg" xmlns:xlink="http://www.w3.org/1999/xlink" x="0px"
	 y="0px" viewBox="0 0 234 190" style="enable-background:new 0 0 234 190;" xml:space="preserve">
<style type="text/css">
	.st0{fill:#FBC531;}
</style>
<g>
	<path class="st0" d="M45.41,108.789v55.371c0,2.28-0.651,4.297-1.953,6.055c-2.475,3.32-6.381,4.98-11.719,4.98
		c-4.558,0-8.139-1.302-10.742-3.906c-1.889-1.888-2.832-4.263-2.832-7.129V35.742c0-2.734,0.911-5.044,2.734-6.934
		c2.603-2.669,6.25-4.004,10.938-4.004c5.533,0,9.537,1.855,12.012,5.566c1.041,1.499,1.562,3.288,1.562,5.371v49.219h67.578V35.742
		c0-2.278,0.65-4.263,1.953-5.957c2.474-3.32,6.348-4.98,11.621-4.98c4.556,0,8.138,1.303,10.742,3.906
		c1.888,1.889,2.832,4.233,2.832,7.031V164.16c0,2.8-0.913,5.144-2.734,7.031c-2.539,2.67-6.152,4.004-10.84,4.004
		c-5.6,0-9.604-1.855-12.012-5.566c-1.042-1.497-1.562-3.32-1.562-5.469v-55.371H45.41z"/>
	<path class="st0" d="M195.605,135.449c3.516,0,6.9,0.977,10.156,2.93c6.25,3.842,9.375,9.409,9.375,16.699
		c0,5.078-1.758,9.506-5.273,13.281c-3.842,4.167-8.659,6.25-14.453,6.25c-3.386,0-6.577-0.845-9.57-2.539
		c-6.577-3.775-9.863-9.473-9.863-17.09c0-5.989,2.212-10.904,6.641-14.746C186.328,137.045,190.657,135.449,195.605,135.449z"/>
</g>
</svg>
