<?xml version="1.0" encoding="utf-8"?>
<!-- Generator: Adobe Illustrator 25.3.1, SVG Export Plug-In . SVG Version: 6.00 Build 0)  -->
<svg version="1.1" id="レイヤー_1" xmlns="http://www.w3.org/2000/svg" xmlns:xlink="http://www.w3.org/1999/xlink" x="0px"
	 y="0px" viewBox="0 0 184 65" style="enable-background:new 0 0 184 65;" xml:space="preserve">
<style type="text/css">
	.st0{display:none;}
	.st1{display:inline;fill:#2B2B2B;}
	.st2{fill:#EBE938;}
</style>
<g class="st0">
	<rect x="-15.5" y="-27.5" class="st1" width="217" height="102"/>
	<path class="st1" d="M201-27V74H-15V-27H201 M202-28H-16V75h218V-28L202-28z"/>
</g>
<g>
	<path class="st2" d="M20.197,35.164v13.843c0,0.57-0.163,1.074-0.488,1.514c-0.619,0.83-1.595,1.245-2.93,1.245
		c-1.14,0-2.035-0.325-2.686-0.977c-0.472-0.472-0.708-1.066-0.708-1.782V16.902c0-0.684,0.228-1.261,0.684-1.733
		c0.651-0.667,1.562-1.001,2.734-1.001c1.383,0,2.384,0.464,3.003,1.392c0.26,0.375,0.391,0.822,0.391,1.343v12.305h16.895V16.902
		c0-0.569,0.163-1.066,0.488-1.489c0.618-0.83,1.587-1.245,2.905-1.245c1.139,0,2.034,0.326,2.686,0.977
		c0.472,0.472,0.708,1.058,0.708,1.758v32.104c0,0.7-0.228,1.286-0.684,1.758c-0.635,0.667-1.538,1.001-2.71,1.001
		c-1.4,0-2.401-0.464-3.003-1.392c-0.261-0.374-0.391-0.83-0.391-1.367V35.164H20.197z"/>
	<path class="st2" d="M57.746,41.829c0.879,0,1.725,0.244,2.539,0.732c1.562,0.96,2.344,2.352,2.344,4.175
		c0,1.27-0.439,2.376-1.318,3.32c-0.96,1.042-2.165,1.562-3.613,1.562c-0.847,0-1.644-0.211-2.393-0.635
		c-1.644-0.944-2.466-2.368-2.466-4.272c0-1.497,0.553-2.726,1.66-3.687C55.427,42.228,56.509,41.829,57.746,41.829z"/>
	<path class="st2" d="M78.449,35.311v9.082c0,0.603,0.301,0.903,0.903,0.903h17.456c0.667,0,1.221,0.236,1.66,0.708
		c0.521,0.57,0.781,1.318,0.781,2.246c0,1.27-0.432,2.157-1.294,2.661c-0.342,0.195-0.725,0.293-1.147,0.293H76.447
		c-3.239,0-4.858-1.619-4.858-4.858V19.563c0-3.239,1.619-4.858,4.858-4.858h19.604c0.586,0,1.099,0.195,1.538,0.586
		c0.602,0.57,0.903,1.343,0.903,2.319c0,1.205-0.432,2.059-1.294,2.563c-0.326,0.195-0.708,0.293-1.147,0.293H79.353
		c-0.603,0-0.903,0.317-0.903,0.952v8.203h15.454c0.553,0,1.025,0.179,1.416,0.537c0.586,0.537,0.879,1.318,0.879,2.344
		c0,1.156-0.391,1.986-1.172,2.49c-0.31,0.212-0.684,0.317-1.123,0.317H78.449z"/>
	<path class="st2" d="M112.36,35.701v13.257c0,0.781-0.269,1.416-0.806,1.904c-0.667,0.603-1.538,0.903-2.612,0.903
		c-1.4,0-2.401-0.472-3.003-1.416c-0.261-0.391-0.391-0.854-0.391-1.392V20.76c0-4.036,2.018-6.055,6.055-6.055h8.911
		c3.532,0,6.396,0.578,8.594,1.733c1.253,0.667,2.311,1.562,3.174,2.686c1.318,1.693,1.978,3.679,1.978,5.957
		c0,5.485-3.003,8.74-9.009,9.766l9.766,11.865c0.439,0.537,0.659,1.147,0.659,1.831c0,1.14-0.505,1.994-1.514,2.563
		c-0.749,0.423-1.538,0.635-2.368,0.635c-1.335,0-2.417-0.578-3.247-1.733l-10.181-14.307H112.36z M112.36,30.208h7.056
		c4.997,0,7.495-1.676,7.495-5.029c0-3.255-2.417-4.883-7.251-4.883h-6.299c-0.667,0-1.001,0.334-1.001,1.001V30.208z"/>
	<path class="st2" d="M157.233,13.851c3.694,0,6.95,0.969,9.766,2.905c2.848,1.97,4.932,4.712,6.25,8.228
		c0.911,2.441,1.367,5.103,1.367,7.983c0,5.208-1.384,9.554-4.15,13.037c-3.239,4.069-7.683,6.104-13.33,6.104
		c-5.941,0-10.531-2.254-13.77-6.763c-2.441-3.385-3.662-7.511-3.662-12.378c0-3.678,0.74-6.982,2.222-9.912
		c2.1-4.199,5.306-6.982,9.619-8.35C153.303,14.136,155.199,13.851,157.233,13.851z M157.111,19.539c-2.946,0-5.347,1.18-7.202,3.54
		c-1.937,2.474-2.905,5.737-2.905,9.79c0,3.516,0.749,6.445,2.246,8.789c1.872,2.962,4.508,4.443,7.91,4.443
		c3.255,0,5.827-1.392,7.715-4.175c1.611-2.376,2.417-5.396,2.417-9.058c0-4.183-1.009-7.495-3.027-9.937
		C162.393,20.67,160.008,19.539,157.111,19.539z"/>
</g>
</svg>
